<svg width="70" height="32" viewBox="0 0 70 32" fill="none" xmlns="http://www.w3.org/2000/svg">
<g clip-path="url(#clip0_33_13)">
<path d="M40.0565 4.09933V0.990111H39.1905C39.1313 0.991001 39.0725 0.979883 39.0178 0.957429C38.963 0.934975 38.9134 0.90165 38.8718 0.859469C38.8303 0.817287 38.7977 0.767125 38.7761 0.712011C38.7545 0.656898 38.7443 0.597977 38.7462 0.53881C38.7439 0.479377 38.7538 0.420115 38.7753 0.364629C38.7967 0.309144 38.8292 0.258593 38.8707 0.216053C38.9123 0.173513 38.9621 0.139872 39.017 0.117175C39.072 0.0944784 39.131 0.0832011 39.1905 0.0840288H42.0329C42.0922 0.083181 42.1511 0.0944673 42.2059 0.117195C42.2608 0.139923 42.3104 0.173614 42.3517 0.216199C42.393 0.258785 42.4252 0.309368 42.4463 0.364844C42.4674 0.42032 42.4769 0.479519 42.4743 0.53881C42.4765 0.597836 42.4667 0.656694 42.4454 0.711797C42.4241 0.7669 42.3919 0.817094 42.3506 0.85932C42.3093 0.901545 42.2598 0.934918 42.2052 0.957404C42.1506 0.97989 42.0919 0.991018 42.0329 0.990111H41.1628V4.09933C41.1708 4.17534 41.1622 4.25221 41.1375 4.32456C41.1129 4.39691 41.0727 4.463 41.0198 4.51823C40.967 4.57346 40.9027 4.61649 40.8315 4.64433C40.7603 4.67217 40.6839 4.68414 40.6076 4.67941C40.5315 4.68422 40.4552 4.67228 40.3841 4.64442C40.3131 4.61656 40.249 4.57345 40.1964 4.51815C40.1438 4.46285 40.104 4.39668 40.0797 4.32432C40.0554 4.25196 40.0473 4.17516 40.056 4.09933" fill="#4077EF"/>
<path d="M47.7983 4.10806V1.80921H47.7449L46.9722 3.53436C46.815 3.87197 46.688 3.98218 46.4641 3.98218C46.2402 3.98218 46.1033 3.86617 45.949 3.53436L45.1781 1.80921H45.1235V4.10806C45.1235 4.47235 44.9396 4.68292 44.6189 4.68292C44.2981 4.68292 44.1339 4.48047 44.1339 4.10806V0.76275C44.1226 0.670674 44.1315 0.577239 44.16 0.488955C44.1885 0.400672 44.2359 0.319665 44.2989 0.251577C44.3619 0.183489 44.439 0.129958 44.5248 0.094715C44.6106 0.0594719 44.7031 0.0433641 44.7958 0.0475137C45.1334 0.0475137 45.3341 0.204715 45.5348 0.635713L46.4438 2.67527H46.4809L47.3905 0.632232C47.5906 0.201234 47.7884 0.0475137 48.1324 0.0475137C48.5466 0.0475137 48.7844 0.307969 48.7844 0.76275V4.10806C48.7844 4.47235 48.6005 4.68292 48.2797 4.68292C47.9589 4.68292 47.7983 4.48221 47.7983 4.10806" fill="#4077EF"/>
<path d="M50.7388 2.09949C50.7388 0.785615 51.4644 0.000189803 52.7215 0.000189803C53.2505 -0.0237846 53.7689 0.15412 54.1717 0.497897C54.3722 0.672062 54.4991 0.915896 54.5267 1.18007C54.5296 1.23978 54.5198 1.29944 54.4981 1.35513C54.4763 1.41082 54.4431 1.46129 54.4005 1.50324C54.3579 1.54518 54.3069 1.57766 54.2509 1.59854C54.1948 1.61942 54.135 1.62824 54.0754 1.62441C53.9821 1.62176 53.8905 1.59849 53.8073 1.55627C53.724 1.51405 53.6512 1.45392 53.5939 1.3802C53.5062 1.24557 53.387 1.13439 53.2466 1.05634C53.1062 0.978297 52.9488 0.93574 52.7882 0.932375C52.1866 0.932375 51.8456 1.37671 51.8456 2.15054V2.54499C51.8456 3.36754 52.1797 3.81188 52.7882 3.81188C52.9508 3.8105 53.1107 3.7696 53.2539 3.6927C53.3972 3.61579 53.5197 3.5052 53.6107 3.37044C53.6651 3.29659 53.7354 3.236 53.8165 3.1932C53.8975 3.15041 53.9872 3.12652 54.0789 3.12333C54.1387 3.11945 54.1988 3.12822 54.2551 3.14907C54.3113 3.16992 54.3626 3.20239 54.4055 3.24436C54.4484 3.28632 54.482 3.33685 54.504 3.39266C54.5261 3.44846 54.5362 3.50829 54.5336 3.56825C54.5181 3.72452 54.4678 3.87532 54.3862 4.00954C54.3047 4.14377 54.1941 4.25799 54.0626 4.34381C53.6729 4.62366 53.2015 4.76646 52.7221 4.74987C51.4441 4.74755 50.7388 3.96502 50.7388 2.5943V2.09949Z" fill="#4077EF"/>
<path d="M56.4779 0.715503C56.4682 0.62928 56.4782 0.541986 56.5072 0.460215C56.5362 0.378444 56.5835 0.304336 56.6453 0.243489C56.7072 0.182643 56.782 0.13665 56.8643 0.108985C56.9465 0.0813203 57.0339 0.0727077 57.12 0.083798H59.1891C59.2474 0.0816196 59.3054 0.0916021 59.3596 0.113109C59.4138 0.134616 59.4628 0.167175 59.5037 0.208709C59.5446 0.250244 59.5764 0.299842 59.597 0.354341C59.6177 0.40884 59.6267 0.467043 59.6236 0.525237C59.6263 0.582996 59.6168 0.64067 59.5959 0.694579C59.575 0.748488 59.5431 0.797447 59.5022 0.838331C59.4613 0.879215 59.4124 0.911125 59.3585 0.932026C59.3046 0.952926 59.2469 0.962357 59.1891 0.959716H57.5713V1.94585H59.1091C59.1626 1.94373 59.216 1.95284 59.2658 1.97261C59.3155 1.99237 59.3606 2.02235 59.3981 2.0606C59.4356 2.09886 59.4647 2.14455 59.4834 2.19472C59.5022 2.24489 59.5102 2.29844 59.507 2.3519C59.5107 2.40526 59.5029 2.45878 59.4842 2.50889C59.4656 2.55901 59.4364 2.60457 59.3988 2.64255C59.3611 2.68053 59.3158 2.71005 59.2659 2.72915C59.2159 2.74825 59.1625 2.75649 59.1091 2.75332H57.5713V3.77135H59.1758C59.2349 3.76709 59.2941 3.77542 59.3497 3.79579C59.4053 3.81615 59.456 3.84809 59.4983 3.88949C59.5407 3.93089 59.5737 3.98081 59.5953 4.03595C59.6169 4.09108 59.6266 4.15017 59.6236 4.20931C59.6267 4.26879 59.617 4.32825 59.5953 4.38368C59.5735 4.43912 59.5401 4.48926 59.4974 4.53074C59.4546 4.57222 59.4035 4.60408 59.3475 4.62418C59.2914 4.64428 59.2317 4.65215 59.1723 4.64727H57.12C57.0339 4.65859 56.9464 4.65014 56.864 4.62256C56.7817 4.59498 56.7067 4.54899 56.6448 4.48809C56.5829 4.4272 56.5357 4.35299 56.5068 4.27111C56.4778 4.18923 56.4679 4.10184 56.4779 4.01557V0.715503Z" fill="#4077EF"/>
<path d="M64.0696 4.64732H62.1837C62.0976 4.65856 62.0101 4.65003 61.9278 4.62237C61.8455 4.59472 61.7705 4.54866 61.7087 4.48771C61.6468 4.42675 61.5997 4.3525 61.5708 4.2706C61.542 4.1887 61.5322 4.10129 61.5422 4.01503V0.64536C61.5311 0.568372 61.5374 0.489884 61.5606 0.415634C61.5837 0.341384 61.6232 0.273247 61.676 0.216203C61.7289 0.15916 61.7939 0.114651 61.8662 0.0859301C61.9384 0.0572092 62.0162 0.0450017 62.0938 0.0502C62.1717 0.044546 62.2498 0.0564156 62.3224 0.0849354C62.3951 0.113455 62.4604 0.1579 62.5136 0.214999C62.5668 0.272098 62.6065 0.340399 62.6299 0.414876C62.6532 0.489354 62.6595 0.568113 62.6484 0.64536V3.72441H64.0696C64.1343 3.71752 64.1997 3.72432 64.2617 3.74437C64.3236 3.76441 64.3806 3.79726 64.429 3.84078C64.4774 3.8843 64.5161 3.93751 64.5426 3.99697C64.5691 4.05642 64.5828 4.12078 64.5828 4.18586C64.5828 4.25095 64.5691 4.31531 64.5426 4.37476C64.5161 4.43422 64.4774 4.48743 64.429 4.53095C64.3806 4.57447 64.3236 4.60732 64.2617 4.62736C64.1997 4.64741 64.1343 4.65421 64.0696 4.64732" fill="#4077EF"/>
<path d="M68.792 4.64732H66.9062C66.82 4.65856 66.7325 4.65003 66.6502 4.62237C66.5679 4.59472 66.4929 4.54866 66.4311 4.48771C66.3693 4.42675 66.3221 4.3525 66.2933 4.2706C66.2644 4.1887 66.2546 4.10129 66.2646 4.01503V0.64536C66.2535 0.568372 66.2598 0.489884 66.283 0.415634C66.3061 0.341384 66.3456 0.273247 66.3985 0.216203C66.4513 0.15916 66.5163 0.114651 66.5886 0.0859301C66.6608 0.0572092 66.7386 0.0450017 66.8162 0.0502C66.8941 0.044546 66.9722 0.0564156 67.0448 0.0849354C67.1175 0.113455 67.1828 0.1579 67.236 0.214999C67.2892 0.272098 67.3289 0.340399 67.3523 0.414876C67.3756 0.489354 67.3819 0.568113 67.3708 0.64536V3.72441H68.792C68.8567 3.71752 68.9222 3.72432 68.9841 3.74437C69.046 3.76441 69.103 3.79726 69.1514 3.84078C69.1998 3.8843 69.2385 3.93751 69.265 3.99697C69.2915 4.05642 69.3052 4.12078 69.3052 4.18586C69.3052 4.25095 69.2915 4.31531 69.265 4.37476C69.2385 4.43422 69.1998 4.48743 69.1514 4.53095C69.103 4.57447 69.046 4.60732 68.9841 4.62736C68.9222 4.64741 68.8567 4.65421 68.792 4.64732" fill="#4077EF"/>
<path d="M5.77344 25.8414C1.95653 25.8414 -7.12892e-05 23.3395 -7.12892e-05 19.5226V6.85193C-0.00715859 6.56341 0.0427951 6.27634 0.146923 6.00717C0.251052 5.73801 0.407305 5.49206 0.606717 5.28343C0.80613 5.0748 1.04478 4.9076 1.30896 4.79143C1.57315 4.67526 1.85768 4.61239 2.14622 4.60645C2.43525 4.61164 2.7204 4.67395 2.98526 4.78978C3.25012 4.90562 3.48945 5.0727 3.68947 5.28141C3.8895 5.49011 4.04627 5.73632 4.15075 6.00586C4.25524 6.27539 4.30539 6.56293 4.29831 6.85193V9.0336H8.3078C8.5652 9.02767 8.82122 9.07294 9.06098 9.16677C9.30074 9.2606 9.51947 9.40113 9.70447 9.5802C9.88947 9.75926 10.0371 9.97329 10.1387 10.2099C10.2403 10.4464 10.2938 10.7008 10.2963 10.9583C10.272 11.4661 10.0507 11.9445 9.67939 12.2918C9.30813 12.6391 8.81612 12.8281 8.3078 12.8186H4.29831V19.4263C4.29831 20.9977 5.00426 21.8 6.38311 21.8C7.05764 21.7605 7.72523 21.6422 8.37219 21.4473C9.91172 21.0627 11.0348 21.9925 11.0348 23.2757C11.0359 23.6923 10.9065 24.0988 10.6648 24.4382C10.4232 24.7775 10.0813 25.0327 9.68723 25.1679C8.44457 25.6646 7.11124 25.8941 5.77402 25.8414" fill="#4077EF"/>
<path d="M27.4596 14.7421C27.4009 13.837 27.1604 12.953 26.7526 12.1429C26.3448 11.3327 25.778 10.613 25.0859 10.0267C23.6074 8.78425 21.7212 8.13314 19.791 8.19887C17.8535 8.14439 15.962 8.79374 14.4665 10.0267C14.1628 10.2826 13.8814 10.5638 13.6253 10.8672C13.3577 11.1816 13.1856 11.566 13.1293 11.975C13.0731 12.3841 13.135 12.8007 13.3078 13.1756C13.4807 13.5506 13.7572 13.8683 14.1048 14.0912C14.4523 14.3141 14.8564 14.4329 15.2693 14.4335H15.2977C15.6302 14.4356 15.9586 14.3598 16.2565 14.212C16.5544 14.0642 16.8135 13.8486 17.013 13.5826C17.3398 13.1627 17.7628 12.8277 18.2463 12.6056C18.7298 12.3835 19.2596 12.2809 19.791 12.3064C20.2214 12.2747 20.6537 12.3312 21.0615 12.4725C21.4693 12.6139 21.8438 12.8371 22.1623 13.1284C22.4807 13.4197 22.7362 13.773 22.9132 14.1666C23.0902 14.5602 23.1848 14.9858 23.1914 15.4174C23.2873 16.4849 23.2873 17.5588 23.1914 18.6263C23.1826 19.0572 23.0864 19.4817 22.9087 19.8743C22.731 20.2668 22.4754 20.6192 22.1575 20.9101C21.8395 21.201 21.4659 21.4242 21.0591 21.5664C20.6523 21.7086 20.2209 21.7668 19.791 21.7373C19.2596 21.7629 18.7297 21.6603 18.2463 21.4382C17.7628 21.2161 17.3398 20.881 17.013 20.4611C16.8132 20.1955 16.554 19.9804 16.2562 19.8331C15.9583 19.6857 15.63 19.6102 15.2977 19.6125C14.8848 19.6136 14.4808 19.733 14.1335 19.9564C13.7863 20.1798 13.5102 20.4979 13.3379 20.8732C13.1657 21.2484 13.1044 21.6652 13.1614 22.0742C13.2184 22.4831 13.3913 22.8672 13.6596 23.1811C13.9166 23.4808 14.1977 23.759 14.5001 24.0129C15.9834 25.2455 17.865 25.8953 19.7927 25.8408C21.7229 25.9065 23.6091 25.2554 25.0877 24.0129C25.7797 23.4266 26.3465 22.7069 26.7543 21.8968C27.1622 21.0866 27.4026 20.2026 27.4614 19.2975C27.5572 17.7806 27.5572 16.2591 27.4614 14.7421" fill="#4077EF"/>
<path d="M12.8022 17.0195C12.8064 17.2918 12.7564 17.5623 12.655 17.8151C12.5537 18.0679 12.4031 18.298 12.212 18.492C12.0209 18.6861 11.7931 18.8402 11.5419 18.9454C11.2907 19.0506 11.0211 19.1048 10.7488 19.1049C10.4741 19.1081 10.2015 19.0563 9.94705 18.9526C9.69263 18.849 9.46151 18.6955 9.26727 18.5012C9.07304 18.3069 8.9196 18.0757 8.816 17.8213C8.71239 17.5668 8.6607 17.2942 8.66396 17.0195C8.66078 16.7448 8.71252 16.4723 8.81617 16.2179C8.91981 15.9636 9.07325 15.7325 9.26748 15.5382C9.46171 15.344 9.69281 15.1906 9.94719 15.0869C10.2016 14.9833 10.4741 14.9315 10.7488 14.9347C11.0211 14.9348 11.2906 14.9889 11.5418 15.0941C11.793 15.1993 12.0207 15.3534 12.2118 15.5474C12.4029 15.7414 12.5535 15.9714 12.6549 16.2241C12.7562 16.4769 12.8063 16.7472 12.8022 17.0195" fill="#4077EF"/>
<path d="M20.6251 17.0195C20.6284 17.2943 20.5766 17.5669 20.473 17.8214C20.3694 18.0759 20.2159 18.3071 20.0216 18.5014C19.8273 18.6957 19.5961 18.8492 19.3416 18.9528C19.0871 19.0565 18.8145 19.1082 18.5397 19.1049C18.2674 19.1048 17.9978 19.0505 17.7467 18.9453C17.4956 18.84 17.2679 18.6859 17.0768 18.4918C16.8858 18.2978 16.7353 18.0677 16.634 17.8149C16.5327 17.5622 16.4827 17.2918 16.4868 17.0195C16.4827 16.7473 16.5328 16.477 16.6341 16.2243C16.7355 15.9716 16.886 15.7416 17.077 15.5476C17.2681 15.3536 17.4957 15.1995 17.7468 15.0943C17.9979 14.9891 18.2675 14.9348 18.5397 14.9347C18.8144 14.9314 19.087 14.9831 19.3415 15.0867C19.5959 15.1904 19.8271 15.3438 20.0214 15.538C20.2157 15.7323 20.3692 15.9634 20.4728 16.2178C20.5765 16.4722 20.6283 16.7448 20.6251 17.0195" fill="#3375EF" fill-opacity="0.6"/>
<path d="M34.4519 23.532C34.4639 23.8207 34.4169 24.1088 34.3138 24.3787C34.2107 24.6487 34.0536 24.8947 33.8522 25.1019C33.6508 25.3091 33.4092 25.473 33.1423 25.5837C32.8754 25.6944 32.5887 25.7494 32.2998 25.7456C31.7256 25.7248 31.1816 25.4828 30.7816 25.0703C30.3816 24.6577 30.1566 24.1066 30.1535 23.532V4.83142C30.1464 4.5429 30.1964 4.25583 30.3005 3.98667C30.4046 3.7175 30.5609 3.47155 30.7603 3.26292C30.9597 3.0543 31.1983 2.8871 31.4625 2.77092C31.7267 2.65475 32.0112 2.59188 32.2998 2.58594C32.5888 2.59113 32.874 2.65344 33.1388 2.76928C33.4037 2.88511 33.643 3.0522 33.843 3.2609C34.0431 3.46961 34.1998 3.71581 34.3043 3.98535C34.4088 4.25488 34.459 4.54243 34.4519 4.83142V23.532Z" fill="#4077EF"/>
<path d="M45.1973 25.8414C44.1843 25.8534 43.1762 25.6976 42.214 25.3802C41.3273 25.0777 40.5096 24.6019 39.8084 23.9805C38.4091 22.7055 37.5679 20.9309 37.4666 19.0406C37.3705 17.7058 37.3705 16.3658 37.4666 15.0311C37.5688 13.1316 38.4094 11.3474 39.809 10.0592C41.2507 8.79506 43.121 8.12957 45.0372 8.19891C46.0189 8.1507 46.9997 8.30845 47.9167 8.66201C48.8337 9.01556 49.6666 9.5571 50.3618 10.2518C51.0456 10.9667 51.5773 11.8128 51.9247 12.7391C52.2721 13.6654 52.4279 14.6525 52.3828 15.6407V16.3467C52.4051 16.6395 52.3676 16.9339 52.2725 17.2117C52.1773 17.4896 52.0265 17.7451 51.8294 17.9628C51.3669 18.3502 50.7713 18.5415 50.1698 18.4959H41.6368V18.8143C41.6368 20.7338 43.0505 21.9259 45.3255 21.9259C46.5035 21.9054 47.6674 21.666 48.7579 21.2199C49.0484 21.1037 49.358 21.0426 49.6709 21.0395C49.9255 21.0361 50.1782 21.0836 50.4141 21.1794C50.65 21.2751 50.8643 21.4171 51.0445 21.597C51.3912 21.95 51.5839 22.4259 51.5805 22.9207C51.5881 23.293 51.4896 23.6598 51.2965 23.9783C51.1034 24.2967 50.8236 24.5536 50.49 24.7189C49.2283 25.4632 47.4469 25.8414 45.1973 25.8414ZM45.0372 11.9195C42.8765 11.9195 41.6368 13.2537 41.6368 15.574H47.8941C48.1262 15.574 48.2468 15.4406 48.2468 15.1888C48.2858 14.7646 48.2366 14.3369 48.1023 13.9326C47.9681 13.5283 47.7516 13.1562 47.4666 12.8395C47.1468 12.5273 46.7659 12.2844 46.3479 12.1261C45.9299 11.9678 45.4837 11.8975 45.0372 11.9195V11.9195Z" fill="#4077EF"/>
<path d="M61.8142 31.9997C60.1239 32.0113 58.4543 31.6277 56.9386 30.8796C55.7007 30.2769 55.0464 29.4671 55.0464 28.5384C55.0386 28.0282 55.2334 27.5358 55.5881 27.169C55.9428 26.8023 56.4285 26.5911 56.9386 26.5818C57.6086 26.6332 58.2571 26.8419 58.8314 27.1909C59.7589 27.69 60.7946 27.9543 61.8478 27.9606C64.0173 27.9606 65.312 26.7372 65.312 24.689V24.497C64.0624 25.0598 62.7054 25.3442 61.335 25.3305C60.4047 25.3421 59.4797 25.1879 58.6034 24.8752C57.8332 24.5942 57.1302 24.1554 56.5395 23.5868C55.3376 22.3415 54.625 20.7046 54.5324 18.9764C54.4036 17.6108 54.4036 16.2361 54.5324 14.8706C54.6495 13.0367 55.4509 11.3137 56.7779 10.0426C58.2576 8.77953 60.1592 8.12102 62.103 8.19852C63.4443 8.19333 64.7771 8.41011 66.0476 8.84009C67.0384 9.13637 67.9791 9.57965 68.8383 10.1551C69.0878 10.3242 69.2897 10.5547 69.4245 10.8243C69.5593 11.0939 69.6225 11.3936 69.6081 11.6947V24.6217C69.6081 26.9635 68.8633 28.7982 67.3951 30.0744C65.8366 31.3837 63.8485 32.0695 61.8142 31.9997V31.9997ZM62.1668 12.3043C60.0907 12.3043 58.9573 13.3838 58.7983 15.5121C58.7338 16.4198 58.7338 17.3309 58.7983 18.2385C58.9265 20.3268 59.995 21.382 61.9743 21.382C63.1595 21.4173 64.326 21.0808 65.3103 20.4196V13.1704C64.3679 12.5847 63.2762 12.2839 62.1668 12.3043V12.3043Z" fill="#4077EF"/>
</g>
<defs>
<clipPath id="clip0_33_13">
<rect width="69.6088" height="32" fill="white"/>
</clipPath>
</defs>
</svg>
